# xmcd
#
# Track frame offsets:
#	150
#	15334
#	32032
#	46615
#
# Disc length: 829 seconds
#
# Revision: 0
# Processed by: cddbd v1.5.1PL2 Copyright (c) Steve Scherf et al.
# Submitted via: dBpowerAMP V4.0
#
DISCID=1e033b04
DTITLE=K.C. Williams - House Husbands
DYEAR=1997
DGENRE=Country
TTITLE0=Charlie's Boots
TTITLE1=Without A Doubt
TTITLE2=House Husbands
TTITLE3=Harley Workin' Son-Of-A-Gun
EXTD=House Husbands, Robert Medford
EXTT0=
EXTT1=
EXTT2=
EXTT3=
PLAYORDER=
